# xmcd
#
# Track frame offsets:
#	150
#	12487
#	26212
#	40762
#	53989
#	66375
#	80770
#	94742
#	107712
#	119842
#	133292
#	148197
#	161092
#
# Disc length: 2288 seconds
#
# Revision: 3
# Processed by: cddbd v1.5.2PL0 Copyright (c) Steve Scherf et al.
# Submitted via: audiograbber 1.83.01
#
DISCID=c908ee0d
DTITLE=Chris Bartley - The Sweetest Thing This Side Of Heaven
DYEAR=1900
DGENRE=Oldies
TTITLE0=Gotta Tell Somebody
TTITLE1=Sittin' Pretty
TTITLE2=Baby It's Wonderful
TTITLE3=That's How Much I Love You
TTITLE4=Hooked On You
TTITLE5=I'll Be Loving You
TTITLE6=Sweetest Thing This Side Of Heaven
TTITLE7=Sugar Baby
TTITLE8=You Get Next To My Heart
TTITLE9=For You
TTITLE10=My Baby
TTITLE11=Thanks For Loving Me
TTITLE12=Love Me Baby
EXTD=
EXTT0=
EXTT1=
EXTT2=
EXTT3=
EXTT4=
EXTT5=
EXTT6=
EXTT7=
EXTT8=
EXTT9=
EXTT10=
EXTT11=
EXTT12=
PLAYORDER=
